# xmcd
#
# Track frame offsets:
#	150
#	11648
#	38256
#	51143
#	61944
#	84150
#	107403
#	133281
#	150100
#	170761
#	189855
#	210779
#	228150
#	244964
#	261232
#	287181
#	301672
#
# Disc length: 4159 seconds
#
# Revision: 1
# Processed by: cddbd v1.5.1PL2 Copyright (c) Steve Scherf et al.
# Submitted via: EasyCDDAExtractor 5.1.0
#
DISCID=cb103d11
DTITLE=Amadeu Casas - Strollin' Band
DYEAR=2006
DGENRE=Blues
TTITLE0=Tell Me What's The Reason
TTITLE1=No Worry Blues
TTITLE2=Hootie Blues
TTITLE3=T Bone Jumps Again
TTITLE4=I Want A Little Girl
TTITLE5=She's The No Sleepin'est Woman
TTITLE6=Call It Stormy Monday
TTITLE7=Sk Blues
TTITLE8=Here In The Dark
TTITLE9=Is You Is Or Is You Ain't My Baby
TTITLE10=Railroad Station Blues
TTITLE11=T Bone Shuffle
TTITLE12=Mean Old World
TTITLE13=It's A Low Down Dirty Shame
TTITLE14=Early In The Morning
TTITLE15=Boby Sock Baby
TTITLE16=Strollin' With Bone
EXTD=
EXTT0=
EXTT1=
EXTT2=
EXTT3=
EXTT4=
EXTT5=
EXTT6=
EXTT7=
EXTT8=
EXTT9=
EXTT10=
EXTT11=
EXTT12=
EXTT13=
EXTT14=
EXTT15=
EXTT16=
PLAYORDER=
